<mxfile host="app.diagrams.net" agent="Mozilla/5.0 (Windows NT 10.0; Win64; x64) AppleWebKit/537.36 (KHTML, like Gecko) Chrome/126.0.0.0 Safari/537.36" version="24.8.8">
  <diagram name="第1頁" id="WkyGg-Paw7T4SB0bbFF-">
    <mxGraphModel dx="925" dy="779" grid="1" gridSize="10" guides="1" tooltips="1" connect="1" arrows="1" fold="1" page="1" pageScale="1" pageWidth="827" pageHeight="1169" math="0" shadow="0">
      <root>
        <mxCell id="0" />
        <mxCell id="1" parent="0" />
        <mxCell id="MeiVlLIe0pSfdf1ZI6hR-7" style="edgeStyle=orthogonalEdgeStyle;rounded=0;orthogonalLoop=1;jettySize=auto;html=1;exitX=1;exitY=0.5;exitDx=0;exitDy=0;" edge="1" parent="1" source="MeiVlLIe0pSfdf1ZI6hR-1" target="MeiVlLIe0pSfdf1ZI6hR-6">
          <mxGeometry relative="1" as="geometry" />
        </mxCell>
        <mxCell id="MeiVlLIe0pSfdf1ZI6hR-9" style="edgeStyle=orthogonalEdgeStyle;rounded=0;orthogonalLoop=1;jettySize=auto;html=1;exitX=1;exitY=0.75;exitDx=0;exitDy=0;entryX=0;entryY=0.5;entryDx=0;entryDy=0;" edge="1" parent="1" source="MeiVlLIe0pSfdf1ZI6hR-1" target="MeiVlLIe0pSfdf1ZI6hR-8">
          <mxGeometry relative="1" as="geometry" />
        </mxCell>
        <mxCell id="MeiVlLIe0pSfdf1ZI6hR-1" value="Server.js" style="image;html=1;image=img/lib/clip_art/computers/Server_Tower_128x128.png" vertex="1" parent="1">
          <mxGeometry x="374" y="210" width="80" height="80" as="geometry" />
        </mxCell>
        <mxCell id="MeiVlLIe0pSfdf1ZI6hR-2" value="index.html" style="image;html=1;image=img/lib/clip_art/computers/Monitor_Tower_128x128.png" vertex="1" parent="1">
          <mxGeometry x="70" y="430" width="80" height="80" as="geometry" />
        </mxCell>
        <mxCell id="MeiVlLIe0pSfdf1ZI6hR-3" value="" style="whiteSpace=wrap;html=1;shape=mxgraph.basic.cloud_callout" vertex="1" parent="1">
          <mxGeometry x="220" y="300" width="90" height="60" as="geometry" />
        </mxCell>
        <mxCell id="MeiVlLIe0pSfdf1ZI6hR-4" style="edgeStyle=orthogonalEdgeStyle;rounded=0;orthogonalLoop=1;jettySize=auto;html=1;exitX=0;exitY=0.5;exitDx=0;exitDy=0;entryX=0.5;entryY=0;entryDx=0;entryDy=0;entryPerimeter=0;" edge="1" parent="1" source="MeiVlLIe0pSfdf1ZI6hR-1" target="MeiVlLIe0pSfdf1ZI6hR-3">
          <mxGeometry relative="1" as="geometry" />
        </mxCell>
        <mxCell id="MeiVlLIe0pSfdf1ZI6hR-5" style="edgeStyle=orthogonalEdgeStyle;rounded=0;orthogonalLoop=1;jettySize=auto;html=1;exitX=0.5;exitY=0;exitDx=0;exitDy=0;entryX=0.5;entryY=0.74;entryDx=0;entryDy=0;entryPerimeter=0;" edge="1" parent="1" source="MeiVlLIe0pSfdf1ZI6hR-2" target="MeiVlLIe0pSfdf1ZI6hR-3">
          <mxGeometry relative="1" as="geometry" />
        </mxCell>
        <mxCell id="MeiVlLIe0pSfdf1ZI6hR-6" value="profolio.db" style="image;html=1;image=img/lib/clip_art/computers/Database_128x128.png" vertex="1" parent="1">
          <mxGeometry x="560" y="210" width="80" height="80" as="geometry" />
        </mxCell>
        <mxCell id="MeiVlLIe0pSfdf1ZI6hR-8" value="contact.db" style="image;html=1;image=img/lib/clip_art/computers/Database_Add_128x128.png" vertex="1" parent="1">
          <mxGeometry x="560" y="340" width="80" height="80" as="geometry" />
        </mxCell>
        <mxCell id="MeiVlLIe0pSfdf1ZI6hR-10" value="" style="endArrow=classic;startArrow=classic;html=1;rounded=0;exitX=1;exitY=0.5;exitDx=0;exitDy=0;entryX=0;entryY=0.5;entryDx=0;entryDy=0;" edge="1" parent="1" source="MeiVlLIe0pSfdf1ZI6hR-1" target="MeiVlLIe0pSfdf1ZI6hR-6">
          <mxGeometry width="50" height="50" relative="1" as="geometry">
            <mxPoint x="470" y="230" as="sourcePoint" />
            <mxPoint x="520" y="180" as="targetPoint" />
          </mxGeometry>
        </mxCell>
        <mxCell id="MeiVlLIe0pSfdf1ZI6hR-11" value="ajax(){&lt;div&gt;&lt;br&gt;&lt;/div&gt;&lt;div&gt;}&lt;/div&gt;" style="shape=note;whiteSpace=wrap;html=1;backgroundOutline=1;darkOpacity=0.05;" vertex="1" parent="1">
          <mxGeometry x="30" y="550" width="80" height="100" as="geometry" />
        </mxCell>
        <mxCell id="MeiVlLIe0pSfdf1ZI6hR-12" value="form&lt;div&gt;action=&quot;/contact&quot;&lt;/div&gt;" style="shape=card;whiteSpace=wrap;html=1;" vertex="1" parent="1">
          <mxGeometry x="140" y="550" width="120" height="100" as="geometry" />
        </mxCell>
      </root>
    </mxGraphModel>
  </diagram>
</mxfile>
